<svg xmlns="http://www.w3.org/2000/svg" preserveAspectRatio="xMidYMid" width="9" height="12"><path d="M7.676 12H1.323C.594 12 0 11.369 0 10.593V5.812c0-.775.594-1.406 1.323-1.406h.794V2.479C2.117 1.112 3.185 0 4.499 0s2.382 1.112 2.382 2.479v1.927h.795c.73 0 1.324.631 1.324 1.406v4.781C9 11.369 8.406 12 7.676 12zM5.999 2.479c0-.85-.673-1.542-1.5-1.542s-1.5.692-1.5 1.542v1.927h3V2.479zm2.119 3.333c0-.258-.198-.469-.442-.469H1.323c-.243 0-.441.211-.441.469v4.781c0 .259.198.469.441.469h6.353c.244 0 .442-.21.442-.469V5.812zM4.94 8.3v1.028c0 .258-.197.468-.441.468s-.441-.21-.441-.468V8.299a.881.881 0 0 1-.374-.729c0-.479.365-.867.816-.867.451 0 .816.388.816.867 0 .306-.15.576-.376.73z" fill="#ea2260" fill-rule="evenodd"/></svg>