<svg xmlns="http://www.w3.org/2000/svg" preserveAspectRatio="xMidYMid" width="12" height="12"><path d="M11.649 10.789c-.352.439-.834 1.04-2.181 1.199a2.13 2.13 0 0 1-.252.012c-.687 0-3.152-.226-6.039-3.128C.592 6.273-.303 4.432.087 2.52.365 1.153 1.112.49 1.261.369c.246-.238.566-.37.905-.37.334 0 .646.13.878.363l1.732 1.742c.49.492.479 1.303-.023 1.809l-.675.678c.293.53.694 1.228 1.416 1.955.724.727 1.42 1.13 1.945 1.423l.674-.678c.248-.249.575-.386.921-.386.334 0 .645.128.878.361l1.733 1.743c.459.463.46 1.211.004 1.78zm-.531-1.252L9.386 7.795a.495.495 0 0 0-.352-.142.554.554 0 0 0-.395.167l-.716.72a.595.595 0 0 1-.452.209.673.673 0 0 1-.322-.086c-.569-.318-1.35-.753-2.181-1.588-.834-.839-1.267-1.625-1.583-2.198a.614.614 0 0 1 .066-.712l.012-.014.764-.767c.212-.214.223-.55.023-.751L2.517.891a.487.487 0 0 0-.351-.143.555.555 0 0 0-.396.167l-.02.02-.022.016c-.025.019-.67.526-.912 1.718-.333 1.633.504 3.277 2.887 5.674 2.685 2.699 4.899 2.908 5.513 2.908.108 0 .165-.006.166-.006 1.044-.123 1.357-.513 1.688-.925.177-.221.268-.561.048-.783zm-.538-4.434l-.041.002a.373.373 0 0 1-.369-.334c-.07-.649-.458-1.414-.989-1.947-.525-.529-1.278-.918-1.917-.992a.373.373 0 0 1 .085-.743c.808.093 1.712.556 2.358 1.206.653.656 1.114 1.574 1.203 2.395a.375.375 0 0 1-.33.413zm-2-1.62c.364.365.76 1.003.824 1.603a.372.372 0 0 1-.329.412.372.372 0 0 1-.41-.331c-.038-.352-.295-.837-.611-1.155-.314-.315-.792-.573-1.138-.613a.374.374 0 0 1 .085-.743c.59.068 1.218.465 1.579.827z" fill="#ea2260" fill-rule="evenodd"/></svg>