<svg xmlns="http://www.w3.org/2000/svg" preserveAspectRatio="xMidYMid" width="12" height="13"><path d="M8.502 13a3.49 3.49 0 0 1-2.757-1.362H.452A.45.45 0 0 1 0 11.19v-1.048c0-2.293 1.88-4.158 4.191-4.158h1.161c.589 0 1.164.141 1.716.387a3.49 3.49 0 0 1 1.434-.313C10.431 6.058 12 7.615 12 9.529 12 11.443 10.431 13 8.502 13zm-3.15-6.119H4.191c-1.812 0-3.287 1.463-3.287 3.261v.599h4.333a3.42 3.42 0 0 1-.232-1.212c0-1.009.443-1.911 1.138-2.545a3.209 3.209 0 0 0-.791-.103zm3.15.075A2.585 2.585 0 0 0 5.91 9.529a2.585 2.585 0 0 0 2.592 2.573c1.43 0 2.593-1.154 2.593-2.573S9.932 6.956 8.502 6.956zm1.252 3.022h-.799v.793a.451.451 0 0 1-.453.449.45.45 0 0 1-.452-.449v-.793h-.799a.45.45 0 0 1-.452-.449.45.45 0 0 1 .452-.449h.799v-.793a.45.45 0 0 1 .452-.449c.25 0 .453.201.453.449v.793h.799a.45.45 0 0 1 .452.449.45.45 0 0 1-.452.449zm-4.99-4.473c-1.53 0-2.774-1.235-2.774-2.753S3.234 0 4.764 0c1.529 0 2.774 1.234 2.774 2.752 0 1.518-1.245 2.753-2.774 2.753zm0-4.608c-1.031 0-1.87.833-1.87 1.855 0 1.023.839 1.855 1.87 1.855 1.03 0 1.869-.832 1.869-1.855A1.865 1.865 0 0 0 4.764.897z" fill="#ea2260" fill-rule="evenodd"/></svg>