<svg xmlns="http://www.w3.org/2000/svg" preserveAspectRatio="xMidYMid" width="15" height="15"><path d="M10.012 1.709a5.878 5.878 0 0 0-8.303 0 5.879 5.879 0 0 0 0 8.302c2.039 2.038 5.213 2.256 7.5.665.048.228.159.445.335.622l3.334 3.332a1.238 1.238 0 0 0 1.753 0 1.238 1.238 0 0 0 0-1.753l-3.333-3.333a1.23 1.23 0 0 0-.622-.335c1.592-2.287 1.374-5.461-.664-7.5zm-1.053 7.25a4.386 4.386 0 0 1-6.197 0 4.388 4.388 0 0 1 0-6.197 4.388 4.388 0 0 1 6.197 0 4.386 4.386 0 0 1 0 6.197z" fill="#ecc7d0" fill-rule="evenodd"/></svg>