<svg xmlns="http://www.w3.org/2000/svg" xmlns:xlink="http://www.w3.org/1999/xlink" preserveAspectRatio="xMidYMid" width="9" height="12" viewBox="0 0 9 12">
  <defs>
    <style>
      .cls-1 {
        fill: #ea2260;
        fill-rule: evenodd;
      }
    </style>
  </defs>
  <path d="M7.676,12.000 L1.323,12.000 C0.594,12.000 -0.000,11.369 -0.000,10.593 L-0.000,5.812 C-0.000,5.037 0.594,4.406 1.323,4.406 L2.117,4.406 L2.117,2.479 C2.117,1.112 3.185,-0.000 4.499,-0.000 C5.813,-0.000 6.881,1.112 6.881,2.479 L6.881,4.406 L7.676,4.406 C8.406,4.406 9.000,5.037 9.000,5.812 L9.000,10.593 C9.000,11.369 8.406,12.000 7.676,12.000 ZM5.999,2.479 C5.999,1.629 5.326,0.937 4.499,0.937 C3.672,0.937 2.999,1.629 2.999,2.479 L2.999,4.406 L5.999,4.406 L5.999,2.479 ZM8.118,5.812 C8.118,5.554 7.920,5.343 7.676,5.343 L1.323,5.343 C1.080,5.343 0.882,5.554 0.882,5.812 L0.882,10.593 C0.882,10.852 1.080,11.062 1.323,11.062 L7.676,11.062 C7.920,11.062 8.118,10.852 8.118,10.593 L8.118,5.812 ZM4.940,8.300 L4.940,9.328 C4.940,9.586 4.743,9.796 4.499,9.796 C4.255,9.796 4.058,9.586 4.058,9.328 L4.058,8.299 C3.833,8.144 3.684,7.876 3.684,7.570 C3.684,7.091 4.049,6.703 4.500,6.703 C4.951,6.703 5.316,7.091 5.316,7.570 C5.316,7.876 5.166,8.146 4.940,8.300 Z" class="cls-1"/>
</svg>
