<svg id="Grupa_1" data-name="Grupa 1" xmlns="http://www.w3.org/2000/svg" xmlns:xlink="http://www.w3.org/1999/xlink" width="146" height="62.094" viewBox="0 0 146 62.094">
  <defs>
    <style>
      .cls-1 {
        fill: #191919;
      }

      .cls-1, .cls-2 {
        fill-rule: evenodd;
      }

      .cls-2 {
        fill: #eee;
        filter: url(#filter);
      }
    </style>
    <filter id="filter" x="17.5" y="28" width="75" height="28" filterUnits="userSpaceOnUse">
      <feFlood result="flood" flood-color="#fff"/>
      <feComposite result="composite" operator="in" in2="SourceGraphic"/>
      <feBlend result="blend" in2="SourceGraphic"/>
    </filter>
  </defs>
  <path id="BOX" class="cls-1" d="M0.22,29.513a4.7,4.7,0,0,0,.06.647Q0.1,30.1,6.52,29.44q7.5-.779,10.56-0.9-6.72,5.521-8.7,7.2Q1.36,41.68,1.36,42.7q0,0.36,2.16.36,0.66,0,7.98-6.634l8.76-7.889q7.259-.478,16.44-0.6l-6.12,7.53q-5.1,6.216-5.1,7.052,0,0.539,3.54.538,0.54,0,1.8-1.68Q37.383,32.758,41,27.967q0.655-.027,2.386-0.027h1.193q2.385,0.121,2.386-.6,0-1.02-1.973-1.2l-2.69.014q6.889-8.764,12.1-15.848,4.559-6.183,4.56-7.625,0-2.52-1.68-2.521-3.12,0-19.02,11.7-12.24,9-18.96,14.7l-9.24.6q-7.56.471-8.52,1.177-1.32.53-1.32,1.176h0Zm47.138-15.39q-7.6,10.038-9.272,12.022-10.273.169-15.378,0.279Q27.031,22.829,39.342,13.6,53.739,2.741,55.06,2.74a0.265,0.265,0,0,1,.3.3q0,0.6-8,11.083h0ZM59.96,41.38a12.579,12.579,0,0,1,2.7-6q0.059-.059,2.7-2.88,2.16-2.219,2.16-2.64a1.533,1.533,0,0,0-.48-0.84,1.174,1.174,0,0,0-.78-0.42q-0.841,0-6.15,6.12t-6.99,6.12a0.452,0.452,0,0,1-.54-0.48q-0.121-2.4,5.1-8.04,2.579-2.759,2.52-4.14-0.06-1.08-1.8-1.08-1.021,0-2.94,1.928l-0.3.3Q42.68,41.855,37.82,42.1a0.567,0.567,0,0,0-.54.663,0.318,0.318,0,0,0,.36.361h0.42q2.04,0,5.64-2.635T55.34,30.76q-2.22,2.58-3.06,3.72-2.461,3.361-2.34,6.06,0.12,1.98,1.86,1.98,2.46,0,7.32-4.98a8.3,8.3,0,0,0-1.08,3.66q0.12,1.921,2.58,1.92,1.5,0,1.44-.6a0.4,0.4,0,0,0-.42-0.48,0.538,0.538,0,0,0-.24.06H61.22q-1.381,0-1.26-.72h0Zm17.7,0.78a0.505,0.505,0,0,1-.54-0.6q-0.06-.6,2.76-3.78,3.54-3.96,4.2-4.86a4,4,0,0,0,1.02-2.46,3.911,3.911,0,0,0-1.02-2.13,2.857,2.857,0,0,0-1.92-1.23H81.68a2.146,2.146,0,0,0,.18-1.22,0.619,0.619,0,0,0-.72-0.58q-0.841,0-2.64,1.812a2.941,2.941,0,0,0-1.14,1.872,6.313,6.313,0,0,0,.24,1.148A79.4,79.4,0,0,1,70.22,37.2q-6,5.136-8.34,4.954a0.568,0.568,0,0,0-.54.664,0.319,0.319,0,0,0,.36.363A0.49,0.49,0,0,0,62,43h0.12q3.9,0,14.4-10.02,2.28-2.219,2.94-2.88a12.185,12.185,0,0,1,2.94-.9q0.36,0,.54,1.08,0.12,0.6-3.9,4.65t-3.9,6.21a2,2,0,0,0,.75,1.47,2.42,2.42,0,0,0,1.59.57,6.632,6.632,0,0,0,1.26-.107q0.54-.107.48-0.484a0.376,0.376,0,0,0-.42-0.429H77.66Zm25.46-5.58a2.684,2.684,0,0,0-.54-0.9q2.82-3.96,2.82-6.3,0-2.28-2.1-2.28a5.181,5.181,0,0,0-2.94,1.26A2.026,2.026,0,0,0,99.22,28a1.946,1.946,0,0,0-1.44.36l-8.46,7.2q-6.48,5.28-10.5,6.48a0.693,0.693,0,0,0-.6.66,0.347,0.347,0,0,0,.42.36q2.4,0,6.66-3.12l5.88-4.74a10.7,10.7,0,0,0-1.68,4.74,3.949,3.949,0,0,0,.84,2.55,2.766,2.766,0,0,0,2.28,1.05q2.16,0,5.22-2.64a29.105,29.105,0,0,0,4.14-4.44l0.72,0.36a0.31,0.31,0,0,0,.42-0.24h0Zm-4.08-3.36a5.619,5.619,0,0,1,1.32-3.27,3.6,3.6,0,0,1,2.76-1.77,0.958,0.958,0,0,1,1.02,1.14q0,2.76-3.06,6-2.04-.54-2.04-2.1h0Zm-1.2-.42a3.255,3.255,0,0,0,2.7,3.42q-4.5,5.341-6.66,5.34-1.381,0-1.38-1.68,0-2.939,5.52-8.22a4.438,4.438,0,0,0-.18,1.14h0Zm17.82,9.36a0.505,0.505,0,0,1-.54-0.6q-0.06-.6,2.76-3.78,3.54-3.96,4.2-4.86a4,4,0,0,0,1.02-2.46,3.911,3.911,0,0,0-1.02-2.13,2.857,2.857,0,0,0-1.92-1.23h-0.48a2.153,2.153,0,0,0,.18-1.22,0.619,0.619,0,0,0-.72-0.58q-0.842,0-2.64,1.812a2.941,2.941,0,0,0-1.14,1.872,6.341,6.341,0,0,0,.24,1.148,79.325,79.325,0,0,1-7.38,7.067q-6,5.136-8.34,4.954a0.568,0.568,0,0,0-.54.664,0.319,0.319,0,0,0,.36.363A0.49,0.49,0,0,0,100,43h0.12q3.9,0,14.4-10.02,2.28-2.219,2.94-2.88a12.188,12.188,0,0,1,2.94-.9q0.36,0,.54,1.08,0.12,0.6-3.9,4.65t-3.9,6.21a2,2,0,0,0,.75,1.47,2.419,2.419,0,0,0,1.59.57,6.632,6.632,0,0,0,1.26-.107c0.36-.071.519-0.233,0.48-0.484a0.376,0.376,0,0,0-.42-0.429h-1.14ZM126.54,40a2.374,2.374,0,0,0,2.64,2.58q1.8,0,4.5-2.34l3.18-2.76a8.009,8.009,0,0,0-1.5,3.817,1.791,1.791,0,0,0,2.1,1.763q1.98,0,1.92-.6a0.474,0.474,0,0,0-.581-0.48q-1.221,0-1.279-.654-0.06-1.547,4.32-6.99t4.38-5.563a0.864,0.864,0,0,0-1.02-.833,3.772,3.772,0,0,0-1.26.84l-0.66.54a2.332,2.332,0,0,0-2.52-2.22,10.911,10.911,0,0,0-5.04,1.68,25.882,25.882,0,0,0-4.44,3.12q-10.98,9.78-14.46,10.14a0.534,0.534,0,0,0-.54.66,0.318,0.318,0,0,0,.36.36h0.12l0.3-.06a18.019,18.019,0,0,0,7.68-4.2l1.14-.96,1.26-.9a7.524,7.524,0,0,0-.6,3.06h0Zm15.54-10.735q0.12,1.929-5.1,6.812-5.46,5.124-6.96,5.123a0.7,0.7,0,0,1-.72-0.784q-0.06-1.988,6.72-8.5,3.78-3.617,5.16-3.617a0.86,0.86,0,0,1,.9.965h0ZM24.1,61.922a0.114,0.114,0,0,0,.015.049,0.064,0.064,0,0,0,.063.029h7.93q0.078,0,.347-0.01t0.659-.059a8.164,8.164,0,0,0,.864-0.161,6.123,6.123,0,0,0,.952-0.312,5.332,5.332,0,0,0,.933-0.508,3.545,3.545,0,0,0,.806-0.757,3.707,3.707,0,0,0,.566-1.055,4.171,4.171,0,0,0,.215-1.4,3.324,3.324,0,0,0-.22-1.23,3.792,3.792,0,0,0-.6-1.02,4.916,4.916,0,0,0-.884-0.835,10.178,10.178,0,0,0-1.06-.684l0.181-.078a2.6,2.6,0,0,0,.381-0.21,5,5,0,0,0,.474-0.352,3.011,3.011,0,0,0,.474-0.5,2.615,2.615,0,0,0,.361-0.659,2.286,2.286,0,0,0,.142-0.82,2.813,2.813,0,0,0-.273-1.289,2.745,2.745,0,0,0-.728-0.9,3.726,3.726,0,0,0-1.04-.586,7.292,7.292,0,0,0-1.206-.337,9.5,9.5,0,0,0-1.23-.151q-0.61-.034-1.108-0.034-0.156,0-.5.01l-0.776.02q-0.435.01-.918,0.024T28,48.133l-0.771.019q-0.337.01-.474,0.01-0.645,0-1.045,0t-0.635,0q-0.234,0-.327,0l-0.1,0a0.064,0.064,0,0,0-.063.029,0.115,0.115,0,0,0-.015.049V48.65a0.114,0.114,0,0,0,.015.049,0.064,0.064,0,0,0,.063.029H25.2a7,7,0,0,1,.713.034,1.522,1.522,0,0,1,.581.171,0.977,0.977,0,0,1,.4.415,1.689,1.689,0,0,1,.146.776v10.01a0.766,0.766,0,0,1-.161.488,1.423,1.423,0,0,1-.415.352,2.738,2.738,0,0,1-.576.244,5.18,5.18,0,0,1-.64.151q-0.317.054-.6,0.073t-0.469.02a0.064,0.064,0,0,0-.063.029,0.114,0.114,0,0,0-.015.049v0.381Zm5.771-7.236a0.184,0.184,0,0,1,.015-0.073A0.119,0.119,0,0,1,30,54.578h1.064a4.428,4.428,0,0,1,1.4.21,2.99,2.99,0,0,1,1.094.63,2.845,2.845,0,0,1,.713,1.045,3.849,3.849,0,0,1,.254,1.455,4.755,4.755,0,0,1-.161,1.274,3,3,0,0,1-.474,1,2.15,2.15,0,0,1-.791.654,2.48,2.48,0,0,1-1.1.234,2.5,2.5,0,0,1-1.426-.464,1.915,1.915,0,0,1-.5-0.527,1.256,1.256,0,0,1-.2-0.689V54.686Zm0.205-1.006a0.187,0.187,0,0,1-.2-0.078,0.381,0.381,0,0,1-.029-0.107V49.412a0.306,0.306,0,0,1,.127-0.254,0.934,0.934,0,0,1,.313-0.151,2.14,2.14,0,0,1,.386-0.073q0.2-.019.347-0.02a5.786,5.786,0,0,1,1.206.112,2.061,2.061,0,0,1,.874.4,1.743,1.743,0,0,1,.532.767,3.543,3.543,0,0,1,.181,1.226,2.352,2.352,0,0,1-.171.9,2.213,2.213,0,0,1-.469.718,2.143,2.143,0,0,1-.7.474,2.225,2.225,0,0,1-.874.171H30.074Zm20.941,8.281a7.937,7.937,0,0,0,1.924-.815,8.152,8.152,0,0,0,1.587-1.226,7.91,7.91,0,0,0,1.206-1.528,7.275,7.275,0,0,0,.762-1.728,6.511,6.511,0,0,0-.01-3.7,6.772,6.772,0,0,0-.772-1.685,7.144,7.144,0,0,0-1.186-1.416,7.646,7.646,0,0,0-1.519-1.089,7.821,7.821,0,0,0-3.75-.952,9.613,9.613,0,0,0-2.236.254,8.982,8.982,0,0,0-1.973.713A7.7,7.7,0,0,0,43.4,49.9a7.075,7.075,0,0,0-1.255,1.455,6.706,6.706,0,0,0-1.074,3.672,7.589,7.589,0,0,0,.259,2.061,6.591,6.591,0,0,0,.693,1.636,5.936,5.936,0,0,0,1.011,1.26,7.633,7.633,0,0,0,1.216.938,7.71,7.71,0,0,0,1.3.649,11.665,11.665,0,0,0,1.274.41,8.428,8.428,0,0,0,1.123.215,7.757,7.757,0,0,0,.855.059A8.136,8.136,0,0,0,51.016,61.961Zm-6.934-8.755a7.287,7.287,0,0,1,.4-1.382,6.144,6.144,0,0,1,.654-1.216,4.491,4.491,0,0,1,.9-0.967A4.159,4.159,0,0,1,47.188,49a3.972,3.972,0,0,1,1.387-.234,4.636,4.636,0,0,1,2.866.947,5.294,5.294,0,0,1,1.045,1.06,6.427,6.427,0,0,1,.762,1.338,7.914,7.914,0,0,1,.469,1.533,8.372,8.372,0,0,1,.161,1.645,8.9,8.9,0,0,1-.278,2.232,5.957,5.957,0,0,1-.85,1.909,4.406,4.406,0,0,1-1.44,1.333,4.023,4.023,0,0,1-2.051.5A4.406,4.406,0,0,1,47.7,61a4.648,4.648,0,0,1-1.3-.742,5.675,5.675,0,0,1-1.045-1.113,7.167,7.167,0,0,1-.771-1.372A7.9,7.9,0,0,1,44.082,53.206Zm15.967,8.608v0.107a0.114,0.114,0,0,0,.015.049,0.064,0.064,0,0,0,.064.029H65.8a0.064,0.064,0,0,0,.064-0.029,0.115,0.115,0,0,0,.015-0.049v-0.43a0.112,0.112,0,0,0-.078-0.078,0.718,0.718,0,0,0-.352-0.049,3.133,3.133,0,0,1-.493-0.02,1.065,1.065,0,0,1-.44-0.147,0.453,0.453,0,0,1-.19-0.42,0.553,0.553,0,0,1,.137-0.391l3.066-3.975a0.9,0.9,0,0,1,.063-0.073,0.151,0.151,0,0,1,.1-0.024,0.154,0.154,0,0,1,.1.024,0.531,0.531,0,0,1,.068.073l3.076,4.072a1.266,1.266,0,0,1,.073.156,0.5,0.5,0,0,1,.044.185,0.468,0.468,0,0,1-.142.381,0.747,0.747,0,0,1-.332.156,1.665,1.665,0,0,1-.381.034,1.269,1.269,0,0,0-.278.015,0.077,0.077,0,0,0-.068.039,0.087,0.087,0,0,0-.01.039v0.43a0.114,0.114,0,0,0,.015.049,0.064,0.064,0,0,0,.063.029h6.494a0.452,0.452,0,0,0,.259-0.083,0.272,0.272,0,0,0,.122-0.239,0.179,0.179,0,0,0-.122-0.171,1.274,1.274,0,0,0-.288-0.083q-0.166-.029-0.342-0.054a0.946,0.946,0,0,1-.293-0.083,1.761,1.761,0,0,1-.415-0.137,2.641,2.641,0,0,1-.405-0.234,3.571,3.571,0,0,1-.366-0.293,2.445,2.445,0,0,1-.3-0.322l-4.834-6.377,2.715-3.506a4.5,4.5,0,0,1,1.3-1.172,3.4,3.4,0,0,1,1.748-.43,0.068,0.068,0,0,0,.068-0.024,0.145,0.145,0,0,0,.01-0.054v-0.43a0.146,0.146,0,0,0-.01-0.054,0.068,0.068,0,0,0-.068-0.024H69.619a0.068,0.068,0,0,0-.068.024,0.119,0.119,0,0,0-.01.044v0.44a0.069,0.069,0,0,0,.078.078q0.185,0,.435.01a2.987,2.987,0,0,1,.469.054,1.212,1.212,0,0,1,.371.132,0.271,0.271,0,0,1,.151.244,0.665,0.665,0,0,1-.127.366,3.722,3.722,0,0,1-.225.308l-1.885,2.461q-0.068.078-.122,0.151a0.167,0.167,0,0,1-.142.073,0.171,0.171,0,0,1-.176-0.1L66.406,49.93a4.117,4.117,0,0,1-.332-0.469,0.731,0.731,0,0,1-.107-0.234,0.38,0.38,0,0,1,.361-0.312,4.863,4.863,0,0,1,1.152-.1,0.063,0.063,0,0,0,.068-0.029,0.164,0.164,0,0,0,.01-0.049v-0.43a0.164,0.164,0,0,0-.01-0.049,0.063,0.063,0,0,0-.068-0.029H60.127a0.064,0.064,0,0,0-.064.029,0.115,0.115,0,0,0-.015.049v0.43a0.114,0.114,0,0,0,.015.049,0.064,0.064,0,0,0,.064.029q0.1,0,.249.015t0.317,0.039q0.166,0.024.322,0.054l0.264,0.049a2.458,2.458,0,0,1,.591.21,2.827,2.827,0,0,1,.581.41,6.867,6.867,0,0,1,.669.7q0.366,0.435.874,1.084t1.191,1.543q0.684,0.894,1.611,2.095l-3.066,4q-0.069.1-.244,0.313t-0.42.478q-0.244.264-.547,0.547a5.694,5.694,0,0,1-.64.518,4.01,4.01,0,0,1-.684.386,1.709,1.709,0,0,1-.688.151H60.127a0.069,0.069,0,0,0-.078.078v0.322Z" transform="translate(-0.219 -0.156)"/>
  <path id="Shape_2_copy_3" data-name="Shape 2 copy 3" class="cls-2" d="M17.5,56V55h75v1h-75Zm0-27V28h75v1h-75Z" transform="translate(-0.219 -0.156)"/>
</svg>
