<svg xmlns="http://www.w3.org/2000/svg" xmlns:xlink="http://www.w3.org/1999/xlink" preserveAspectRatio="xMidYMid" width="12" height="9" viewBox="0 0 12 9">
  <defs>
    <style>
      .cls-1 {
        fill: #ea2260;
        fill-rule: evenodd;
      }
    </style>
  </defs>
  <path d="M10.593,9.000 L1.406,9.000 C0.631,9.000 -0.000,8.355 -0.000,7.563 L-0.000,1.436 C-0.000,0.644 0.631,-0.000 1.406,-0.000 L10.593,-0.000 C11.369,-0.000 12.000,0.644 12.000,1.436 L12.000,7.563 C12.000,8.355 11.369,9.000 10.593,9.000 ZM1.406,8.042 L10.593,8.042 C10.852,8.042 11.062,7.828 11.062,7.563 L11.062,1.729 L6.000,5.575 L0.937,1.729 L0.937,7.563 C0.937,7.828 1.148,8.042 1.406,8.042 ZM10.508,0.957 L1.492,0.957 L6.000,4.382 L10.508,0.957 Z" class="cls-1"/>
</svg>
