<svg xmlns="http://www.w3.org/2000/svg" xmlns:xlink="http://www.w3.org/1999/xlink" preserveAspectRatio="xMidYMid" width="12" height="13" viewBox="0 0 12 13">
  <defs>
    <style>
      .cls-1 {
        fill: #ea2260;
        fill-rule: evenodd;
      }
    </style>
  </defs>
  <path d="M8.502,13.000 C7.377,13.000 6.385,12.460 5.745,11.638 L0.452,11.638 C0.202,11.638 -0.000,11.437 -0.000,11.190 L-0.000,10.142 C-0.000,7.849 1.880,5.984 4.191,5.984 L5.352,5.984 C5.941,5.984 6.516,6.125 7.068,6.371 C7.507,6.174 7.990,6.058 8.502,6.058 C10.431,6.058 12.000,7.615 12.000,9.529 C12.000,11.443 10.431,13.000 8.502,13.000 ZM5.352,6.881 L4.191,6.881 C2.379,6.881 0.904,8.344 0.904,10.142 L0.904,10.741 L5.237,10.741 C5.094,10.362 5.005,9.957 5.005,9.529 C5.005,8.520 5.448,7.618 6.143,6.984 C5.883,6.918 5.619,6.881 5.352,6.881 ZM8.502,6.956 C7.073,6.956 5.910,8.110 5.910,9.529 C5.910,10.948 7.073,12.102 8.502,12.102 C9.932,12.102 11.095,10.948 11.095,9.529 C11.095,8.110 9.932,6.956 8.502,6.956 ZM9.754,9.978 L8.955,9.978 L8.955,10.771 C8.955,11.019 8.752,11.220 8.502,11.220 C8.253,11.220 8.050,11.019 8.050,10.771 L8.050,9.978 L7.251,9.978 C7.001,9.978 6.799,9.777 6.799,9.529 C6.799,9.281 7.001,9.080 7.251,9.080 L8.050,9.080 L8.050,8.287 C8.050,8.039 8.253,7.838 8.502,7.838 C8.752,7.838 8.955,8.039 8.955,8.287 L8.955,9.080 L9.754,9.080 C10.004,9.080 10.206,9.281 10.206,9.529 C10.206,9.777 10.004,9.978 9.754,9.978 ZM4.764,5.505 C3.234,5.505 1.990,4.270 1.990,2.752 C1.990,1.234 3.234,-0.000 4.764,-0.000 C6.293,-0.000 7.538,1.234 7.538,2.752 C7.538,4.270 6.293,5.505 4.764,5.505 ZM4.764,0.897 C3.733,0.897 2.894,1.730 2.894,2.752 C2.894,3.775 3.733,4.607 4.764,4.607 C5.794,4.607 6.633,3.775 6.633,2.752 C6.633,1.730 5.794,0.897 4.764,0.897 Z" class="cls-1"/>
</svg>
