<svg xmlns="http://www.w3.org/2000/svg" xmlns:xlink="http://www.w3.org/1999/xlink" preserveAspectRatio="xMidYMid" width="15" height="15" viewBox="0 0 15 15">
  <defs>
    <style>
      .cls-1 {
        fill: #ecc7d0;
        fill-rule: evenodd;
      }
    </style>
  </defs>
  <path d="M10.012,1.709 C7.723,-0.580 3.998,-0.580 1.709,1.709 C-0.579,3.998 -0.579,7.722 1.709,10.011 C3.748,12.049 6.922,12.267 9.209,10.676 C9.257,10.904 9.368,11.121 9.544,11.298 L12.878,14.630 C13.362,15.115 14.147,15.115 14.631,14.630 C15.116,14.146 15.116,13.361 14.631,12.877 L11.298,9.544 C11.122,9.367 10.904,9.257 10.676,9.209 C12.268,6.922 12.050,3.748 10.012,1.709 ZM8.959,8.959 C7.250,10.668 4.470,10.668 2.762,8.959 C1.054,7.251 1.054,4.471 2.762,2.762 C4.470,1.054 7.250,1.054 8.959,2.762 C10.668,4.471 10.668,7.251 8.959,8.959 Z" class="cls-1"/>
</svg>
